<?xml version="1.0" standalone="no"?>
<!DOCTYPE svg PUBLIC "-//W3C//DTD SVG 20010904//EN"
 "http://www.w3.org/TR/2001/REC-SVG-20010904/DTD/svg10.dtd">
<svg version="1.0" xmlns="http://www.w3.org/2000/svg"
 width="300.000000pt" height="194.000000pt" viewBox="0 0 300.000000 194.000000"
 preserveAspectRatio="xMidYMid meet">
<metadata>
Created by potrace 1.10, written by Peter Selinger 2001-2011
</metadata>
<g transform="translate(0.000000,194.000000) scale(0.100000,-0.100000)"
fill="#000000" stroke="none">
<path d="M1033 1716 c-103 -34 -187 -109 -218 -196 -20 -55 -19 -164 1 -223 9
-26 18 -47 20 -47 19 0 84 98 84 126 0 27 -18 5 -24 -31 -4 -20 -11 -33 -15
-30 -5 3 3 37 18 77 22 62 37 83 95 140 38 38 77 68 85 67 12 0 11 -3 -4 -9
-11 -5 -16 -9 -11 -9 5 -1 -3 -10 -17 -21 -33 -26 -77 -102 -76 -132 1 -22 1
-22 10 3 9 25 12 26 38 16 35 -13 59 -4 70 25 11 29 -9 42 -50 34 l-30 -6 18
25 c27 37 73 49 116 31 20 -8 40 -24 47 -35 10 -19 8 -21 -25 -21 -27 0 -35
-4 -35 -18 0 -26 55 -56 77 -43 10 6 16 11 13 11 -3 1 -18 3 -34 5 -35 5 -43
12 -29 26 21 21 61 1 73 -35 6 -19 15 -36 20 -38 14 -5 -8 -107 -30 -139 -14
-19 -20 -38 -16 -52 3 -12 -1 -48 -10 -80 -8 -32 -12 -62 -9 -66 11 -19 -41
-39 -93 -36 -29 2 -52 -1 -52 -7 0 -5 5 -6 10 -3 6 3 10 1 10 -4 0 -14 37 -14
45 -1 3 6 12 10 18 10 7 -1 1 -10 -13 -21 -14 -12 -33 -19 -47 -16 -12 2 -20
0 -17 -4 3 -5 -4 -9 -16 -9 -23 0 -40 34 -39 78 5 168 3 202 -9 207 -9 3 -10
10 -3 22 5 10 7 32 4 48 -3 23 -2 27 6 15 9 -12 11 -10 11 13 0 39 -17 25 -31
-26 -6 -23 -20 -54 -31 -70 -12 -17 -17 -34 -13 -45 6 -15 8 -14 18 6 13 27
27 29 27 2 0 -11 -4 -20 -8 -20 -4 0 -9 -16 -10 -37 -3 -33 -1 -35 15 -22 16
12 15 11 -1 -9 -13 -15 -15 -22 -6 -22 10 0 9 -5 -3 -18 -10 -10 -17 -22 -17
-27 0 -5 7 0 15 11 8 10 15 14 15 8 0 -18 -31 -87 -37 -81 -3 3 -5 34 -5 69 0
35 -3 72 -5 83 -11 39 -22 -18 -13 -66 5 -26 5 -48 -1 -53 -6 -6 -9 -5 -9 4 0
19 -13 4 -17 -20 -1 -10 2 -22 7 -25 6 -4 7 1 3 11 -5 12 3 10 33 -9 59 -38
110 -50 174 -39 47 8 50 10 20 12 l-35 2 53 24 c28 13 52 27 53 31 1 5 3 25 5
47 1 21 11 44 20 51 13 9 15 20 11 44 -5 23 -3 33 8 38 12 4 13 8 4 19 -7 8
-9 18 -4 22 10 10 64 -58 58 -74 -3 -8 -9 -11 -14 -8 -5 3 -7 9 -4 14 3 5 0
12 -6 16 -8 4 -9 3 -5 -4 9 -16 -7 -15 -22 0 -15 15 -15 8 -2 -26 11 -29 -7
-86 -20 -65 -4 6 -7 -7 -6 -29 0 -32 3 -38 14 -30 7 6 10 19 7 29 -3 9 -1 20
5 24 5 3 10 -1 10 -9 0 -8 5 -18 12 -22 11 -7 10 -3 -4 46 -3 8 -3 12 -1 8 9
-16 33 -7 33 12 0 11 9 29 20 40 12 12 15 22 9 26 -6 3 -8 12 -5 20 3 8 2 13
-2 11 -13 -4 -47 28 -50 47 -3 15 2 14 32 -9 20 -15 36 -34 36 -41 0 -8 5 -14
11 -14 7 0 9 -9 6 -23 -4 -12 -2 -28 2 -35 6 -10 10 -8 14 10 9 33 8 58 -2 58
-12 0 -77 66 -85 85 -3 10 -2 13 5 10 6 -4 7 3 3 19 -4 15 -2 26 4 26 20 0
-102 183 -136 203 -18 11 -31 21 -29 24 12 12 110 -65 148 -117 24 -31 56
-109 50 -119 -2 -2 2 -7 9 -11 6 -4 21 -32 34 -64 l23 -56 18 56 c37 119 3
275 -78 356 -73 73 -199 105 -294 74z m82 -16 c3 -5 12 -10 18 -10 7 0 6 4 -3
10 -12 8 -11 10 7 10 12 0 25 -5 28 -10 4 -6 11 -8 16 -5 5 4 9 1 9 -5 0 -6 4
-9 9 -6 12 8 70 -24 110 -59 27 -25 44 -50 56 -85 1 -3 7 -18 14 -35 7 -16 13
-61 14 -99 2 -60 0 -69 -16 -72 -13 -2 -17 2 -13 12 3 8 1 14 -5 14 -6 0 -7 5
-4 10 3 6 1 10 -4 10 -6 0 -10 3 -9 8 6 18 -65 144 -88 154 -13 6 -24 14 -24
18 0 19 -78 48 -125 46 -67 -3 -91 -15 -152 -78 -40 -41 -55 -66 -68 -113 -10
-33 -21 -64 -26 -69 -5 -6 -9 -18 -9 -28 0 -26 -17 -22 -22 5 -2 12 -4 58 -3
102 1 79 13 115 45 142 8 7 11 13 6 13 -25 1 94 88 147 107 70 25 83 27 92 13z
m-50 -220 c0 -10 -12 -16 -32 -18 -36 -4 -44 11 -15 27 23 14 47 9 47 -9z
m205 -321 c0 -6 -4 -7 -10 -4 -5 3 -10 11 -10 16 0 6 5 7 10 4 6 -3 10 -11 10
-16z m-282 -160 c-7 -20 -27 9 -21 31 l6 24 9 -24 c5 -13 7 -27 6 -31z"/>
<path d="M1089 1426 c-19 -6 -46 -18 -60 -28 -22 -15 -23 -18 -8 -33 15 -15
19 -15 53 2 37 17 39 17 75 -3 30 -16 40 -18 49 -8 17 18 15 27 -8 42 -22 13
-27 3 -8 -16 20 -20 3 -23 -32 -6 -26 14 -39 15 -68 6 -39 -12 -52 -8 -34 10
7 7 30 11 52 9 49 -3 65 5 46 25 -8 8 -16 14 -18 13 -2 -1 -19 -6 -39 -13z"/>
<path d="M932 1410 c0 -14 4 -36 8 -50 l8 -25 0 25 c0 14 -4 36 -8 50 l-8 25
0 -25z"/>
<path d="M1073 1350 c-36 -15 -27 -22 17 -15 27 5 46 3 56 -5 8 -7 18 -10 22
-6 10 11 -28 36 -52 35 -12 0 -31 -4 -43 -9z"/>
<path d="M1205 1326 c-21 -32 -43 -39 -69 -23 -18 13 -26 12 -56 -4 -20 -11
-36 -15 -38 -9 -2 5 -8 10 -14 10 -6 0 -4 -8 5 -18 10 -10 14 -22 10 -25 -3
-4 -2 -7 4 -7 6 0 17 7 24 16 10 13 24 15 61 11 28 -4 48 -2 48 3 0 6 7 10 15
10 8 0 15 8 15 18 0 10 5 23 12 30 7 7 9 12 5 12 -3 0 -14 -11 -22 -24z"/>
<path d="M1300 1312 c0 -5 11 -19 25 -32 30 -28 34 -13 5 18 -22 23 -30 27
-30 14z"/>
<path d="M901 1274 c0 -11 3 -14 6 -6 3 7 2 16 -1 19 -3 4 -6 -2 -5 -13z"/>
<path d="M1015 1250 c3 -5 8 -10 11 -10 2 0 4 5 4 10 0 6 -5 10 -11 10 -5 0
-7 -4 -4 -10z"/>
<path d="M872 1227 c-23 -24 -30 -71 -12 -82 6 -3 10 -16 10 -28 0 -12 4 -28
9 -36 6 -10 9 -1 8 26 -1 23 -5 39 -9 36 -5 -2 -8 5 -8 16 0 10 -3 28 -6 38
-3 12 -1 10 8 -5 17 -28 30 -18 21 16 -4 18 -2 23 6 18 6 -4 9 -11 6 -16 -3
-4 2 -11 10 -14 12 -4 13 -2 6 12 -25 42 -27 43 -49 19z"/>
<path d="M813 1176 c-13 -42 -10 -57 8 -39 6 6 9 26 7 44 l-3 34 -12 -39z"/>
<path d="M1379 1170 c-1 -8 -1 -18 0 -22 0 -5 -3 -8 -8 -8 -6 0 -9 -9 -8 -19
0 -11 5 -17 11 -14 5 4 6 -6 2 -23 -4 -16 -3 -24 1 -18 11 15 42 2 70 -27 11
-13 31 -55 44 -94 20 -63 23 -96 28 -319 3 -137 3 -292 -1 -345 -4 -53 -10
-138 -14 -189 -4 -58 -3 -92 3 -92 5 0 11 26 12 58 1 31 6 84 12 116 10 59 13
295 6 561 -3 119 -8 152 -30 222 -27 80 -50 110 -113 150 -16 10 -17 14 -5 22
12 7 12 14 4 33 -8 15 -12 18 -14 8z"/>
<path d="M1303 1094 c6 -35 -15 -68 -27 -42 -3 7 -4 -3 -2 -23 2 -20 11 -48
21 -62 25 -39 30 -33 6 8 -20 35 -20 35 0 45 11 6 17 15 14 20 -8 13 25 41 38
33 7 -3 4 3 -5 14 -10 11 -18 24 -18 30 0 5 -7 10 -16 10 -13 0 -15 -7 -11
-33z"/>
<path d="M762 1097 c-76 -68 -89 -88 -117 -173 -23 -75 -38 -176 -47 -314 0
-8 -4 -51 -9 -95 -8 -73 -10 -282 -4 -380 1 -22 3 -61 4 -87 0 -27 5 -48 10
-48 6 0 9 98 8 243 -3 404 34 679 105 779 10 15 41 38 68 50 39 18 46 24 32
30 -25 10 -35 9 -50 -5z"/>
<path d="M840 1101 c0 -5 7 -15 17 -22 15 -13 15 -12 4 9 -12 23 -21 28 -21
13z"/>
<path d="M1213 1027 c-48 -34 -144 -284 -142 -372 1 -16 9 8 19 55 27 124 90
267 129 292 17 11 31 26 31 34 0 17 3 17 -37 -9z"/>
<path d="M1249 966 c7 -8 10 -19 7 -24 -3 -5 1 -9 8 -9 18 0 8 34 -11 42 -13
4 -14 3 -4 -9z"/>
<path d="M790 950 c6 -11 15 -18 21 -15 13 9 11 13 -12 25 -19 11 -20 10 -9
-10z"/>
<path d="M1395 960 c3 -5 8 -10 11 -10 2 0 4 5 4 10 0 6 -5 10 -11 10 -5 0 -7
-4 -4 -10z"/>
<path d="M1000 952 c0 -6 6 -41 14 -79 25 -120 35 -250 22 -271 -4 -7 -4 -17
0 -24 4 -6 11 -25 15 -42 l7 -31 1 28 c1 15 7 36 14 48 10 17 9 22 -5 33 -14
10 -18 28 -18 74 0 58 -33 259 -45 270 -3 3 -5 0 -5 -6z"/>
<path d="M1360 934 c-6 -14 -9 -46 -8 -72 l1 -47 4 45 c2 25 6 52 10 60 9 21
12 40 7 40 -3 0 -9 -12 -14 -26z"/>
<path d="M1420 949 c0 -5 5 -7 10 -4 6 3 10 8 10 11 0 2 -4 4 -10 4 -5 0 -10
-5 -10 -11z"/>
<path d="M925 930 c-10 -11 -13 -20 -7 -20 6 0 16 9 22 20 6 11 9 20 7 20 -2
0 -12 -9 -22 -20z"/>
<path d="M845 927 c-6 -7 -16 -25 -23 -42 -11 -28 -11 -29 3 -10 8 11 22 28
30 38 8 9 15 19 15 22 0 9 -15 4 -25 -8z"/>
<path d="M1050 930 c-13 -8 -12 -10 3 -10 9 0 17 5 17 10 0 12 -1 12 -20 0z"/>
<path d="M1100 930 c-13 -9 -13 -10 0 -10 8 0 22 5 30 10 13 9 13 10 0 10 -8
0 -22 -5 -30 -10z"/>
<path d="M1325 932 c-16 -11 -15 -25 2 -99 18 -81 18 -148 -1 -213 -8 -26 -11
-52 -6 -56 15 -18 28 -100 23 -149 -7 -72 -10 -78 -30 -66 -19 10 -47 86 -38
102 10 15 26 10 23 -7 -2 -10 2 -19 9 -21 11 -4 8 18 -12 85 -8 26 -20 29 -29
6 -3 -8 -2 -13 3 -10 11 7 20 -14 14 -31 -3 -7 -9 -13 -15 -13 -6 0 -8 7 -4
15 3 8 2 15 -2 15 -10 0 -35 91 -27 98 3 3 5 0 5 -6 0 -7 7 -12 15 -12 8 0 15
5 15 11 0 5 -4 7 -10 4 -5 -3 -10 1 -10 9 0 9 -6 16 -14 16 -28 0 -25 -46 10
-157 33 -108 51 -136 88 -138 9 0 24 -31 25 -52 1 -6 -8 -15 -19 -18 -18 -6
-18 -8 -5 -21 25 -26 17 -39 -10 -14 -18 17 -31 21 -54 17 -17 -4 -47 0 -68 7
-35 12 -40 11 -68 -9 -16 -13 -46 -26 -65 -30 -19 -4 -78 -30 -131 -57 -103
-53 -132 -57 -137 -19 -3 19 0 23 14 17 15 -6 15 -3 -4 17 -26 27 -29 72 -6
81 23 9 24 8 25 -16 0 -22 1 -22 9 -3 5 11 9 15 9 9 1 -18 158 -38 182 -24 7
5 -7 11 -37 15 -58 7 -172 34 -196 47 -23 11 -23 35 3 103 24 65 26 118 6 195
-16 62 -23 220 -9 220 11 0 45 71 37 78 -3 4 -8 -4 -12 -16 -3 -12 -10 -19
-17 -15 -6 3 -8 2 -3 -2 4 -5 1 -18 -7 -30 -8 -12 -16 -37 -18 -56 -3 -28 -4
-25 -8 18 -3 28 -2 49 1 47 8 -5 32 77 24 84 -9 9 -24 -19 -19 -33 3 -6 -2
-12 -11 -12 -8 0 -14 7 -13 15 2 8 -3 16 -10 18 -7 1 -8 0 -2 -3 8 -3 7 -9 -1
-19 -9 -11 -6 -16 12 -23 13 -5 17 -10 9 -10 -11 -1 -15 -13 -16 -45 0 -29 4
-43 10 -39 6 4 5 0 -2 -9 -10 -13 -10 -17 3 -22 8 -3 15 -10 15 -16 0 -6 -4
-8 -10 -5 -13 8 -13 -76 0 -146 15 -77 21 -168 14 -206 -5 -27 -9 -31 -20 -22
-11 9 -14 8 -14 -4 0 -8 7 -17 15 -21 11 -4 15 -21 15 -63 0 -68 29 -223 41
-223 10 0 12 13 9 49 -1 19 2 23 19 18 11 -2 21 -2 23 2 6 15 192 101 218 101
15 0 39 9 54 21 20 16 35 19 64 15 20 -3 54 -7 75 -8 21 -1 43 -8 49 -15 10
-13 7 -67 -10 -140 -7 -33 -6 -43 3 -43 7 0 16 19 19 45 7 42 26 64 26 30 0
-8 4 -15 9 -15 5 0 2 19 -6 42 -16 47 -14 84 5 80 9 -2 11 2 5 10 -9 15 -14
91 -12 188 2 106 4 128 10 124 4 -2 12 15 18 39 15 50 15 61 4 64 -4 2 -8 -13
-9 -32 -1 -37 -18 -64 -31 -51 -12 12 -8 92 10 196 9 52 19 111 22 130 l5 35
-15 -39 c-8 -21 -12 -42 -10 -46 3 -5 0 -12 -6 -16 -8 -4 -9 -3 -5 4 4 7 3 12
-1 12 -15 0 -33 100 -22 121 11 21 9 23 -6 11z m-553 -292 c3 -16 1 -30 -4
-30 -4 0 -8 14 -8 30 0 17 2 30 4 30 2 0 6 -13 8 -30z m28 -99 c0 -5 -3 -24
-7 -42 -6 -32 -7 -33 -13 -9 -7 29 -2 60 11 60 5 0 9 -4 9 -9z m7 -113 c-7
-27 -13 -36 -15 -25 -5 24 6 67 17 67 5 0 4 -19 -2 -42z"/>
<path d="M780 909 c0 -5 5 -7 10 -4 6 3 10 8 10 11 0 2 -4 4 -10 4 -5 0 -10
-5 -10 -11z"/>
<path d="M1420 910 c20 -13 33 -13 25 0 -3 6 -14 10 -23 10 -15 0 -15 -2 -2
-10z"/>
<path d="M1375 900 c-3 -5 -1 -10 4 -10 6 0 11 5 11 10 0 6 -2 10 -4 10 -3 0
-8 -4 -11 -10z"/>
<path d="M849 883 c-13 -16 -12 -17 4 -4 9 7 17 15 17 17 0 8 -8 3 -21 -13z"/>
<path d="M895 886 c-28 -33 -37 -47 -33 -52 3 -3 16 9 28 26 21 30 25 50 5 26z"/>
<path d="M1240 890 c-13 -8 -12 -10 3 -10 9 0 17 5 17 10 0 12 -1 12 -20 0z"/>
<path d="M1437 829 c3 -10 9 -16 14 -13 13 8 11 21 -5 27 -10 4 -12 0 -9 -14z"/>
<path d="M1435 780 c-3 -5 -1 -10 4 -10 6 0 11 5 11 10 0 6 -2 10 -4 10 -3 0
-8 -4 -11 -10z"/>
<path d="M666 745 c-3 -8 -1 -15 4 -15 13 0 22 18 11 24 -5 3 -11 -1 -15 -9z"/>
<path d="M1421 751 c-11 -7 -11 -10 0 -15 8 -3 3 -4 -10 -2 -17 4 -21 2 -13
-6 12 -12 46 -3 38 11 -4 5 0 12 6 14 7 3 9 6 3 6 -5 0 -16 -3 -24 -8z"/>
<path d="M1165 740 c-3 -5 -1 -10 4 -10 6 0 11 5 11 10 0 6 -2 10 -4 10 -3 0
-8 -4 -11 -10z"/>
<path d="M892 730 c2 -8 11 -18 21 -22 10 -4 16 -12 12 -18 -3 -5 -1 -18 5
-27 9 -16 10 -15 5 5 -8 30 3 28 32 -5 18 -22 22 -23 17 -8 -8 21 -38 55 -50
55 -4 0 -16 8 -26 17 -15 14 -19 14 -16 3z"/>
<path d="M1204 722 c-22 -19 -21 -44 2 -35 7 3 11 9 8 15 -3 5 2 16 12 23 11
8 15 14 9 14 -5 0 -19 -7 -31 -17z"/>
<path d="M990 720 c0 -5 5 -10 11 -10 5 0 7 5 4 10 -3 6 -8 10 -11 10 -2 0 -4
-4 -4 -10z"/>
<path d="M1481 714 c0 -11 3 -14 6 -6 3 7 2 16 -1 19 -3 4 -6 -2 -5 -13z"/>
<path d="M1120 705 c-17 -21 -9 -27 13 -10 10 7 14 16 9 19 -5 3 -15 -1 -22
-9z"/>
<path d="M660 699 c0 -5 5 -7 10 -4 6 3 10 8 10 11 0 2 -4 4 -10 4 -5 0 -10
-5 -10 -11z"/>
<path d="M1413 693 c-3 -10 -8 -21 -10 -25 -2 -5 2 -8 9 -8 7 0 14 11 14 25 2
29 -4 33 -13 8z"/>
<path d="M1245 691 c-6 -11 13 -26 22 -17 4 3 1 6 -6 6 -7 0 -9 5 -6 10 3 6 4
10 1 10 -3 0 -7 -4 -11 -9z"/>
<path d="M670 669 c-6 -11 -10 -28 -8 -37 2 -10 8 -1 15 21 12 41 10 48 -7 16z"/>
<path d="M887 683 c-4 -3 -7 -11 -7 -17 0 -6 5 -5 12 2 6 6 9 14 7 17 -3 3 -9
2 -12 -2z"/>
<path d="M1471 674 c0 -11 3 -14 6 -6 3 7 2 16 -1 19 -3 4 -6 -2 -5 -13z"/>
<path d="M1397 636 c-4 -10 -1 -13 8 -9 8 3 12 9 9 14 -7 12 -11 11 -17 -5z"/>
<path d="M1465 640 c-3 -5 -1 -10 4 -10 6 0 11 5 11 10 0 6 -2 10 -4 10 -3 0
-8 -4 -11 -10z"/>
<path d="M924 618 c-5 -7 -3 -8 7 -3 11 7 12 6 2 -7 -7 -8 -10 -18 -7 -21 11
-10 24 3 24 24 0 21 -15 25 -26 7z"/>
<path d="M1460 605 c-7 -9 -8 -15 -2 -15 5 0 12 7 16 15 3 8 4 15 2 15 -2 0
-9 -7 -16 -15z"/>
<path d="M657 599 c7 -7 15 -10 18 -7 3 3 -2 9 -12 12 -14 6 -15 5 -6 -5z"/>
<path d="M877 604 c-4 -4 -7 -14 -7 -23 1 -14 3 -13 14 2 9 11 16 14 19 7 3
-6 5 -6 3 2 -3 14 -20 21 -29 12z"/>
<path d="M666 565 c-3 -9 -6 -22 -5 -28 0 -7 5 -1 10 12 5 13 8 26 5 28 -2 2
-6 -3 -10 -12z"/>
<path d="M943 560 c-3 -11 -12 -20 -20 -20 -10 0 -13 -8 -9 -30 2 -16 0 -30
-6 -30 -5 0 -16 -6 -24 -14 -12 -13 -12 -17 2 -30 8 -9 17 -16 19 -16 10 0 36
63 28 69 -16 12 -12 30 7 36 12 4 17 12 13 22 -3 8 0 19 8 24 11 7 11 9 1 9
-8 0 -16 -9 -19 -20z m-33 -110 c0 -5 -4 -10 -10 -10 -5 0 -10 5 -10 10 0 6 5
10 10 10 6 0 10 -4 10 -10z"/>
<path d="M1107 545 c3 -8 9 -12 14 -9 12 7 11 11 -5 17 -10 4 -13 1 -9 -8z"/>
<path d="M1251 544 c0 -11 3 -14 6 -6 3 7 2 16 -1 19 -3 4 -6 -2 -5 -13z"/>
<path d="M864 543 c3 -6 0 -13 -6 -16 -7 -2 -10 -8 -5 -12 4 -5 13 -3 19 3 9
9 9 15 -1 25 -9 8 -12 8 -7 0z"/>
<path d="M1184 516 c2 -20 6 -39 9 -43 4 -3 5 11 4 30 -2 20 -6 39 -9 43 -4 3
-5 -10 -4 -30z"/>
<path d="M1406 533 c-6 -14 -5 -15 5 -6 7 7 10 15 7 18 -3 3 -9 -2 -12 -12z"/>
<path d="M1424 525 c-3 -14 -12 -25 -19 -25 -15 0 -14 -32 1 -37 9 -2 44 59
44 77 0 21 -20 9 -26 -15z"/>
<path d="M693 526 c-6 -8 -9 -17 -6 -20 12 -11 19 -6 20 14 2 23 2 23 -14 6z"/>
<path d="M1126 519 c-11 -11 -18 -21 -15 -23 7 -7 41 22 38 32 -2 5 -13 1 -23
-9z"/>
<path d="M1130 480 c0 -5 7 -10 16 -10 8 0 12 5 9 10 -3 6 -10 10 -16 10 -5 0
-9 -4 -9 -10z"/>
<path d="M996 465 c4 -8 11 -15 16 -15 6 0 8 -7 5 -15 -4 -8 -1 -17 5 -21 6
-4 8 -3 4 4 -3 6 1 17 10 26 19 20 9 42 -12 25 -10 -8 -14 -8 -14 0 0 6 -4 11
-10 11 -5 0 -7 -7 -4 -15z"/>
<path d="M1150 449 c0 -5 5 -7 10 -4 6 3 10 8 10 11 0 2 -4 4 -10 4 -5 0 -10
-5 -10 -11z"/>
<path d="M1204 437 c12 -49 25 -77 37 -77 8 0 8 4 1 13 -5 6 -13 27 -17 44 -3
18 -11 36 -17 39 -7 5 -9 -2 -4 -19z"/>
<path d="M1383 438 c-2 -16 1 -17 13 -8 17 15 17 17 1 23 -8 3 -14 -3 -14 -15z"/>
<path d="M968 433 c6 -2 18 -2 25 0 6 3 1 5 -13 5 -14 0 -19 -2 -12 -5z"/>
<path d="M872 413 c-10 -4 -10 -8 -1 -19 9 -11 8 -14 -5 -14 -9 0 -16 -7 -16
-15 0 -20 6 -19 30 5 31 31 27 57 -8 43z"/>
<path d="M1130 410 c0 -5 -6 -7 -12 -5 -9 4 -14 -6 -15 -27 0 -18 1 -26 4 -18
3 8 15 25 26 38 11 12 15 22 9 22 -7 0 -12 -4 -12 -10z"/>
<path d="M1476 405 c4 -8 8 -15 10 -15 2 0 4 7 4 15 0 8 -4 15 -10 15 -5 0 -7
-7 -4 -15z"/>
<path d="M685 400 c3 -5 8 -10 11 -10 2 0 4 5 4 10 0 6 -5 10 -11 10 -5 0 -7
-4 -4 -10z"/>
<path d="M720 396 c7 -7 13 -7 20 0 6 6 3 10 -10 10 -13 0 -16 -4 -10 -10z"/>
<path d="M1175 391 c5 -17 4 -21 -5 -16 -9 6 -9 3 -1 -12 6 -11 7 -23 4 -27
-3 -3 -2 -6 3 -6 15 0 64 -46 57 -54 -3 -3 -1 -6 5 -6 7 0 12 6 12 13 1 6 7 1
15 -13 8 -15 14 -19 14 -10 1 23 -15 43 -28 36 -7 -5 -17 6 -26 28 -15 34 -31
53 -19 21 4 -8 1 -15 -5 -15 -6 0 -11 12 -11 28 0 15 -5 34 -11 42 -8 12 -9
10 -4 -9z"/>
<path d="M994 385 c-4 -11 -13 -13 -27 -9 -19 6 -20 5 -5 -10 22 -22 31 -20
45 9 6 14 7 25 2 25 -5 0 -12 -7 -15 -15z"/>
<path d="M700 361 c0 -6 5 -13 10 -16 6 -3 10 1 10 9 0 9 -4 16 -10 16 -5 0
-10 -4 -10 -9z"/>
<path d="M926 362 c-3 -5 1 -9 9 -9 8 0 12 4 9 9 -3 4 -7 8 -9 8 -2 0 -6 -4
-9 -8z"/>
<path d="M738 353 c7 -3 16 -2 19 1 4 3 -2 6 -13 5 -11 0 -14 -3 -6 -6z"/>
<path d="M1240 338 c0 -9 5 -20 11 -23 17 -11 20 0 4 21 -13 17 -14 17 -15 2z"/>
<path d="M1475 330 c3 -5 8 -10 11 -10 2 0 4 5 4 10 0 6 -5 10 -11 10 -5 0 -7
-4 -4 -10z"/>
<path d="M940 317 c0 -10 8 -17 18 -17 9 0 13 4 7 8 -5 4 -13 11 -17 16 -5 5
-8 2 -8 -7z"/>
<path d="M1410 326 c0 -2 7 -9 15 -16 13 -11 14 -10 9 4 -5 14 -24 23 -24 12z"/>
<path d="M835 310 c-7 -11 2 -30 13 -30 4 0 8 9 8 20 0 21 -11 26 -21 10z"/>
<path d="M694 295 c8 -8 18 -15 22 -15 3 0 1 7 -6 15 -7 8 -17 15 -22 15 -5 0
-3 -7 6 -15z"/>
<path d="M1056 301 c-4 -5 3 -7 14 -4 23 6 26 13 6 13 -8 0 -17 -4 -20 -9z"/>
<path d="M896 281 c-4 -5 3 -7 14 -4 23 6 26 13 6 13 -8 0 -17 -4 -20 -9z"/>
<path d="M1395 280 c-8 -13 5 -13 25 0 13 8 13 10 -2 10 -9 0 -20 -4 -23 -10z"/>
<path d="M1465 270 c3 -5 8 -10 11 -10 2 0 4 5 4 10 0 6 -5 10 -11 10 -5 0 -7
-4 -4 -10z"/>
<path d="M637 253 c-3 -5 9 -9 26 -10 18 -1 40 -3 49 -5 9 -2 18 1 20 6 4 11
-89 19 -95 9z"/>
<path d="M1436 245 c4 -8 10 -15 15 -15 4 0 6 7 3 15 -4 8 -10 15 -15 15 -4 0
-6 -7 -3 -15z"/>
<path d="M1410 215 c7 -8 17 -15 22 -15 5 0 3 7 -6 15 -8 8 -18 15 -22 15 -3
0 -1 -7 6 -15z"/>
<path d="M713 188 c-6 -7 -13 -22 -17 -33 -7 -20 -7 -20 12 0 15 16 26 45 17
45 -2 0 -7 -6 -12 -12z"/>
<path d="M1457 180 c3 -11 9 -17 14 -15 10 7 1 35 -11 35 -5 0 -6 -9 -3 -20z"/>
<path d="M665 180 c-3 -5 -2 -10 4 -10 5 0 13 5 16 10 3 6 2 10 -4 10 -5 0
-13 -4 -16 -10z"/>
<path d="M1380 167 c0 -16 21 -57 29 -57 13 0 2 37 -15 51 -8 6 -14 9 -14 6z"/>
<path d="M720 120 c-13 -8 -12 -10 3 -10 9 0 17 5 17 10 0 12 -1 12 -20 0z"/>
<path d="M670 110 c0 -5 5 -10 11 -10 5 0 7 5 4 10 -3 6 -8 10 -11 10 -2 0 -4
-4 -4 -10z"/>
<path d="M715 80 c3 -5 13 -10 21 -10 8 0 12 5 9 10 -3 6 -13 10 -21 10 -8 0
-12 -4 -9 -10z"/>
<path d="M705 10 c-3 -5 -1 -10 4 -10 6 0 11 5 11 10 0 6 -2 10 -4 10 -3 0 -8
-4 -11 -10z"/>
<path d="M1445 10 c3 -5 8 -10 11 -10 2 0 4 5 4 10 0 6 -5 10 -11 10 -5 0 -7
-4 -4 -10z"/>
</g>
</svg>
